Coordinates
version=1
nRows=16
nColumns=40
inDegrees=yes

Units are S.I. units (second, meters, Newtons, ...)
Angles are in degrees.

endheader
time	pelvis_tilt	pelvis_list	pelvis_rotation	pelvis_tx	pelvis_ty	pelvis_tz	hip_flexion_r	hip_adduction_r	hip_rotation_r	knee_angle_r	knee_angle_r_beta	ankle_angle_r	subtalar_angle_r	mtp_angle_r	hip_flexion_l	hip_adduction_l	hip_rotation_l	knee_angle_l	knee_angle_l_beta	ankle_angle_l	subtalar_angle_l	mtp_angle_l	lumbar_extension	lumbar_bending	lumbar_rotation	arm_flex_r	arm_add_r	arm_rot_r	elbow_flex_r	pro_sup_r	wrist_flex_r	wrist_dev_r	arm_flex_l	arm_add_l	arm_rot_l	elbow_flex_l	pro_sup_l	wrist_flex_l	wrist_dev_l
     11.37792857	     -5.90321406	     -6.24907535	      4.25020971	      0.78090534	      0.91971795	      0.50377919	      1.94797309	      4.98221180	    -17.54878063	     10.28447460	     10.28447460	     15.88560568	      4.47211795	     -3.45177057	     32.54935770	     -9.09065688	     -2.93563952	     17.15519535	     17.15519535	      2.96198246	     -6.45447615	      6.55154634	     -9.64670911	      8.74953435	      3.20571399	     32.74053435	    -17.73978625	     -5.69314938	     91.16119440	     44.54114423	      0.00000000	      0.00000000	     -7.88355126	     -8.70339839	     -8.57014216	     31.37864258	     46.66962108	      0.00000000	      0.00000000
     11.39085714	     -5.87338270	     -6.26701065	      3.97946499	      0.78250868	      0.91852960	      0.50225567	      1.28321965	      4.93126342	    -17.27128927	     10.20818226	     10.20818226	     16.31539958	      4.66662195	     -3.48860238	     32.22286474	     -9.11124261	     -3.03389891	     17.92834259	     17.92834259	      2.37292907	     -6.90303485	      6.53121526	     -9.39630457	      8.54130401	      3.45185088	     32.81938973	    -17.31589761	     -5.42949728	     91.73218109	     44.51787671	      0.00000000	      0.00000000	     -8.25481990	     -8.73298952	     -8.58248281	     31.26523897	     46.66256579	      0.00000000	      0.00000000
     11.40378571	     -5.79532888	     -6.40166772	      3.84294058	      0.78409592	      0.91728803	      0.50048669	      0.58427320	      5.00267797	    -17.14715211	     10.13828777	     10.13828777	     16.78296670	      4.83525746	     -3.32846102	     32.04424483	     -9.15178777	     -2.67328465	     18.94872581	     18.94872581	      1.81566860	     -7.64630311	      6.13009517	     -9.25618543	      8.51162654	      3.30886452	     32.92921492	    -16.75331650	     -4.84478888	     93.16650052	     44.46173823	      0.00000000	      0.00000000	     -8.68016192	     -8.74778206	     -8.59325362	     31.19524144	     46.65059837	      0.00000000	      0.00000000
     11.41671429	     -5.76017410	     -6.41158334	      3.59321260	      0.78569323	      0.91622540	      0.49863479	      0.11023247	      4.84720997	    -16.91173683	     10.47857393	     10.47857393	     17.67503308	      5.04754117	     -2.02618361	     31.68189738	     -9.07857472	     -2.37439358	     19.54335529	     19.54335529	      0.64154934	     -8.72673088	      4.09702859	     -9.10782522	      8.33005225	      3.63288128	     32.54920407	    -16.93655142	     -3.92559839	     94.92976223	     44.43736704	      0.00000000	      0.00000000	     -8.95809042	     -8.76269392	     -8.61672677	     31.45827625	     46.60334998	      0.00000000	      0.00000000
     11.42964286	     -5.69550044	     -6.36541030	      3.39333539	      0.78713114	      0.91535805	      0.49665046	     -0.29694114	      4.60948137	    -16.63289769	     10.93488740	     10.93488740	     18.08908829	      4.89186395	     -2.03716663	     31.52708964	     -8.98308387	     -2.16694363	     20.57263686	     20.57263686	      0.60760946	     -9.29672189	      3.84934370	     -8.97310820	      8.06648900	      3.62880580	     32.59500192	    -16.48466181	     -3.56029751	     95.41400344	     44.41841644	      0.00000000	      0.00000000	     -9.08043499	     -8.81400448	     -8.59374268	     31.28152615	     46.59233522	      0.00000000	      0.00000000
     11.44257143	     -5.69974301	     -6.27494495	      3.19430851	      0.78836795	      0.91463460	      0.49449447	     -0.42702785	      4.25990672	    -16.28231171	     11.75034544	     11.75034544	     18.55544711	      4.47212156	     -1.90623667	     31.47704165	     -8.81893537	     -1.92599231	     21.60076391	     21.60076391	      0.72344943	     -9.98386421	      3.52472551	     -8.80022594	      7.76711422	      3.59569251	     32.49710347	    -16.21868999	     -2.87525022	     95.98471095	     44.39063113	      0.00000000	      0.00000000	     -9.09437160	     -8.84345147	     -8.56107505	     31.05362585	     46.57878342	      0.00000000	      0.00000000
     11.45550000	     -5.65916861	     -6.14325842	      3.02239929	      0.78949118	      0.91429852	      0.49219020	     -0.46112773	      3.82619532	    -15.90189805	     12.81634016	     12.81634016	     18.98843671	      3.89528785	     -1.64192083	     31.36647028	     -8.60410169	     -1.69671511	     22.57718132	     22.57718132	      1.07154018	    -10.62986747	      3.23103783	     -8.69808233	      7.41422839	      3.60915049	     32.26710165	    -16.16855641	     -2.05577187	     96.36899424	     44.36883071	      0.00000000	      0.00000000	     -8.92870025	     -8.90604112	     -8.52389422	     30.75800774	     46.56491711	      0.00000000	      0.00000000
     11.46842857	     -5.58874926	     -6.03461968	      2.88149085	      0.79045452	      0.91427222	      0.48972980	     -0.38228944	      3.36647506	    -15.59406854	     14.11479490	     14.11479490	     19.26498600	      3.30008454	     -1.60502451	     31.24707847	     -8.41124246	     -1.52621992	     23.55270875	     23.55270875	      1.63145419	    -11.17344029	      2.95735767	     -8.67571915	      7.10734423	      3.58862247	     32.06922927	    -16.11124654	     -1.47166378	     96.54791430	     44.35489232	      0.00000000	      0.00000000	     -8.63585676	     -8.93211004	     -8.48144074	     30.55218421	     46.55662431	      0.00000000	      0.00000000
     11.48135714	     -5.45314854	     -5.89659318	      2.74954117	      0.79139445	      0.91466706	      0.48715072	     -0.28100930	      2.84772421	    -15.28623941	     15.56058697	     15.56058697	     19.41664419	      2.65942498	     -1.69671730	     30.97811286	     -8.19162246	     -1.42407643	     24.38953145	     24.38953145	      2.32175967	    -11.63624396	      2.70977272	     -8.72093946	      6.77598946	      3.58025181	     31.68821037	    -16.06060556	     -0.91063879	     96.56740447	     44.34246334	      0.00000000	      0.00000000	     -8.28530067	     -9.00860186	     -8.44685655	     30.39544230	     46.55290421	      0.00000000	      0.00000000
     11.49428571	     -5.47858141	     -5.73008953	      2.60537423	      0.79202318	      0.91505091	      0.48449250	      0.33887189	      2.21205925	    -14.88074831	     17.60567078	     17.60567078	     19.48514820	      1.68062457	     -1.92080524	     30.80263763	     -7.92902746	     -1.40370113	     25.05418349	     25.05418349	      3.08071592	    -11.99625319	      2.59350983	     -8.61704529	      6.42125856	      3.56156690	     31.24556880	    -16.20362677	     -0.13311326	     96.53705061	     44.32712002	      0.00000000	      0.00000000	     -7.79000137	     -9.03996121	     -8.37954361	     30.15232082	     46.54547894	      0.00000000	      0.00000000
     11.50721429	     -5.42157320	     -5.59227762	      2.48075628	      0.79266317	      0.91580734	      0.48179572	      0.95059815	      1.59887704	    -14.48672640	     19.76763629	     19.76763629	     19.34937561	      0.66744917	     -2.28070066	     30.44509966	     -7.70028403	     -1.43719254	     25.56151332	     25.56151332	      3.89246900	    -12.24328763	      2.53165222	     -8.59039455	      6.11187835	      3.52914464	     30.62234801	    -16.36159769	      0.66606202	     96.36829171	     44.31508897	      0.00000000	      0.00000000	     -7.21404098	     -9.08190421	     -8.30652143	     29.94098020	     46.53856371	      0.00000000	      0.00000000
     11.52014286	     -5.37851141	     -5.45697212	      2.34865818	      0.79323875	      0.91668006	      0.47910638	      1.76556839	      0.95202331	    -14.08308864	     22.23353310	     22.23353310	     19.01757433	     -0.44920817	     -2.86557351	     30.00663599	     -7.48325053	     -1.58148117	     25.89375401	     25.89375401	      4.69621120	    -12.36547136	      2.47167415	     -8.53333872	      5.83087830	      3.49202621	     29.91423689	    -16.54457516	      1.43572299	     96.10369295	     44.30644044	      0.00000000	      0.00000000	     -6.60876856	     -9.13641204	     -8.23528746	     29.79704634	     46.53262933	      0.00000000	      0.00000000
     11.53307143	     -5.30231359	     -5.29144918	      2.18837134	      0.79374490	      0.91765561	      0.47648556	      2.70550621	      0.25354000	    -13.63036330	     24.95104599	     24.95104599	     18.47251702	     -1.63230821	     -3.64098229	     29.46572423	     -7.26025508	     -1.81980741	     26.12432736	     26.12432736	      5.45259470	    -12.41669645	      2.35902404	     -8.54625493	      5.48682165	      3.43960116	     29.10671725	    -16.67901346	      2.14335476	     95.75694709	     44.30069020	      0.00000000	      0.00000000	     -5.96672217	     -9.22312625	     -8.17470470	     29.77064583	     46.52953205	      0.00000000	      0.00000000
     11.54600000	     -5.38860936	     -5.23350285	      2.04934314	      0.79407690	      0.91846230	      0.47396022	      4.00051771	     -0.30568376	    -13.10763749	     27.87374819	     27.87374819	     17.36959654	     -3.33774835	     -5.11172748	     29.04395469	     -7.12357649	     -2.03982448	     26.18698874	     26.18698874	      6.13090130	    -12.38484713	      2.38393323	     -8.31512659	      5.29313336	      3.36638867	     28.13053464	    -17.00666854	      3.09665929	     95.28677555	     44.29845003	      0.00000000	      0.00000000	     -5.32210906	     -9.28528876	     -8.06242734	     29.70179152	     46.51442774	      0.00000000	      0.00000000
     11.55892857	     -5.14981564	     -4.98166993	      1.89472180	      0.79453422	      0.91961602	      0.47140262	      5.11109768	     -1.13755696	    -12.61949781	     31.13137376	     31.13137376	     16.32712070	     -4.60854581	     -6.14806055	     28.21582505	     -6.81985822	     -2.37037400	     26.24486259	     26.24486259	      6.80119693	    -12.31657005	      2.15952576	     -8.54184982	      4.91395791	      3.23534250	     27.16706522	    -16.93711042	      3.61427766	     94.84411789	     44.29970105	      0.00000000	      0.00000000	     -4.63925491	     -9.43626869	     -8.02421339	     29.91552734	     46.51590493	      0.00000000	      0.00000000
     11.57185714	     -5.13775248	     -4.87945531	      1.75476791	      0.79479004	      0.92036669	      0.46904398	      6.40459506	     -1.64476276	    -11.90817979	     33.86964180	     33.86964180	     12.52274736	     -8.03638054	    -13.58565967	     27.63530767	     -6.63987819	     -2.60078152	     26.22151431	     26.22151431	      7.38783317	    -12.24462474	      2.00841823	     -8.42568327	      4.68418222	      2.96410100	     26.17802248	    -17.10734911	      4.69829984	     94.07083012	     44.37047113	      0.00000000	      0.00000000	     -4.18596420	     -9.65367713	     -7.51685867	     30.40204559	     46.40531592	      0.00000000	      0.00000000
